# Noesis .obj export.
#
mtllib model.mtl
g
v  -0.961039 -0.961396 0.009737
v  -1.000076 -0.961396 0.047575
v  -0.961039 0.961919 0.009737
v  -1.000076 0.961919 0.047575
v  -0.236266 1.193883 2.060835
v  -0.236266 1.128933 2.129988
v  0.236074 1.193883 2.060835
v  0.236074 1.128933 2.129988
v  0.154097 1.207138 0.857837
v  0.756558 1.245578 1.156630
v  -0.002048 1.207138 1.011800
v  0.286821 1.277390 1.642004
v  1.158632 1.183279 1.378440
v  0.498918 1.205812 2.037349
v  1.262728 1.236299 1.485432
v  0.608220 1.245578 2.129988
v  1.271837 1.394035 1.468470
v  0.596509 1.409941 2.143036
v  1.174246 1.546468 1.400622
v  0.532750 1.567677 2.050397
v  1.023306 1.636603 1.287107
v  0.415641 1.664439 1.910787
v  0.675883 1.644556 1.142277
v  0.275110 1.652509 1.544146
v  0.169712 1.500076 1.272754
v  0.411737 1.500076 1.032676
v  -0.002048 1.207138 1.011800
v  0.154097 1.207138 0.857837
v  0.236074 1.193883 -0.042454
v  0.236074 1.128933 -0.111607
v  -0.236266 1.193883 -0.042454
v  -0.236266 1.128933 -0.111607
v  0.139784 1.276064 0.872190
v  -0.051494 1.282692 0.702570
v  -0.068409 1.266786 1.075734
v  -0.223253 1.291970 0.951781
v  -0.344266 1.286669 0.707789
v  -0.436652 1.342340 1.079648
v  -0.729424 1.281366 0.746932
v  -0.767159 1.318481 1.210125
v  -0.953232 1.270762 0.810866
v  -0.959738 1.298598 1.288411
v  -1.115883 1.215091 0.878714
v  -1.097667 1.236299 1.365393
v  -1.244703 0.943361 0.917857
v  -1.200462 0.963244 1.435850
v  -1.313667 0.708746 1.207515
v  -1.292848 0.765743 0.937428
v  -1.391740 0.389298 0.979181
v  -1.238197 0.768394 1.477603
v  -1.347499 0.433040 1.527184
v  0.224363 -0.979953 -0.035930
v  0.224363 -1.044903 0.029308
v  -0.224555 -0.979953 -0.035930
v  -0.224555 -1.044903 0.029308
v  0.224363 -1.044903 0.029308
v  0.224363 -1.048880 0.784770
v  -0.224555 -1.044903 0.029308
v  -0.224555 -1.048880 0.784770
v  0.962149 -0.999836 0.047575
v  0.999884 -0.961396 0.047575
v  0.962149 -0.999836 1.970806
v  0.999884 -0.961396 1.970806
v  0.224363 -1.048880 0.784770
v  0.224363 -1.048880 1.233611
v  -0.224555 -1.048880 0.784770
v  -0.224555 -1.048880 1.233611
v  0.139784 1.276064 0.872190
v  -0.068409 1.266786 1.075734
v  0.305038 1.282692 1.065296
v  0.053904 1.291970 1.233611
v  0.297231 1.286669 1.358869
v  -0.077518 1.342340 1.444984
v  0.250387 1.281366 1.742471
v  -0.212844 1.318481 1.773786
v  0.184025 1.270762 1.965587
v  -0.293519 1.298598 1.964282
v  0.113760 1.215091 2.126074
v  -0.372893 1.236299 2.101283
v  0.072121 0.943361 2.255246
v  -0.445760 0.963244 2.203055
v  -0.219350 0.708746 2.319180
v  -0.487399 0.768394 2.239588
v  -0.538146 0.433040 2.347884
v  0.052603 0.765743 2.302217
v  0.008362 0.389298 2.401380
v  -0.224555 -1.048880 0.784770
v  -0.224555 -1.048880 1.233611
v  -0.980558 -1.044903 0.784770
v  -0.980558 -1.044904 1.233611
v  0.154097 1.207138 0.857837
v  -0.002048 1.207138 1.011800
v  -0.136072 1.245578 0.251119
v  -0.627930 1.277390 0.713008
v  -0.350772 1.183279 -0.154664
v  -1.019594 1.205812 0.495111
v  -0.456170 1.236299 -0.260351
v  -1.110679 1.245578 0.384206
v  -0.437953 1.394035 -0.269484
v  -1.123691 1.409941 0.395949
v  -0.372893 1.546469 -0.171626
v  -1.032606 1.567677 0.461187
v  -0.262290 1.636603 -0.018968
v  -0.894678 1.664439 0.578616
v  -0.123060 1.644556 0.332015
v  -0.530339 1.652509 0.726055
v  -0.259687 1.500076 0.835656
v  -0.017662 1.500076 0.596883
v  -0.002048 1.207138 1.011800
v  0.154097 1.207138 0.857837
v  -0.993570 1.095795 2.092150
v  -1.039112 0.588125 2.047787
v  0.993378 1.095795 2.092150
v  1.038920 0.588125 2.047787
v  0.993378 1.184604 2.003425
v  0.993378 1.184604 0.016261
v  -0.993570 1.184604 2.003425
v  -0.993570 1.184604 0.016261
v  1.081860 1.095795 0.016261
v  1.081860 1.095795 2.003425
v  1.038920 0.588125 -0.029406
v  1.038920 0.588125 2.047787
v  0.224363 -1.048880 1.233611
v  0.224363 -1.048880 0.784770
v  0.980366 -1.044904 1.233611
v  0.980366 -1.044903 0.784770
v  1.102680 1.128933 0.769113
v  1.033715 1.193883 0.769113
v  1.102680 1.128933 1.250573
v  1.033715 1.193883 1.250573
v  -0.980558 -1.044904 1.233611
v  -1.045618 -0.979953 1.233611
v  -0.980558 -1.044903 0.784770
v  -1.045618 -0.979953 0.784770
v  -0.236266 1.196534 1.250573
v  -0.236266 1.196534 0.769113
v  -1.033907 1.193883 1.250573
v  -1.033907 1.193883 0.769113
v  0.236074 1.196534 1.250573
v  0.236074 1.196534 0.769113
v  -0.236266 1.196534 1.250573
v  -0.236266 1.196534 0.769113
v  1.045426 -0.979953 1.233611
v  0.980366 -1.044904 1.233611
v  1.045426 -0.979953 0.784770
v  0.980366 -1.044903 0.784770
v  0.993378 1.184604 2.003425
v  1.081860 1.095795 2.003425
v  0.993378 1.184604 0.016261
v  1.081860 1.095795 0.016261
v  -1.102871 1.128933 1.250573
v  -1.033907 1.193883 1.250573
v  -1.102871 1.128933 0.769113
v  -1.033907 1.193883 0.769113
v  -1.082052 1.095795 2.003425
v  -1.082052 1.095795 0.016261
v  -1.039112 0.588125 2.047787
v  -1.039112 0.588125 -0.029406
v  -1.082052 1.095795 2.003425
v  -0.993570 1.184604 2.003425
v  -1.082052 1.095795 0.016261
v  -0.993570 1.184604 0.016261
v  -0.236266 1.193883 -0.042454
v  -0.236266 1.196534 0.769113
v  0.236074 1.193883 -0.042454
v  0.236074 1.196534 0.769113
v  0.999884 0.961919 1.970806
v  0.962149 0.961919 2.009949
v  0.999884 -0.961396 1.970806
v  0.962149 -0.961396 2.009949
v  0.224363 -1.048880 1.233611
v  0.224363 -1.044904 1.989073
v  -0.224555 -1.048880 1.233611
v  -0.224555 -1.044904 1.989073
v  -0.224555 -0.979953 2.054311
v  -0.224555 -1.044904 1.989073
v  0.224363 -0.979953 2.054311
v  0.224363 -1.044904 1.989073
v  -1.000076 -0.961396 0.047575
v  -1.000076 -0.961396 1.970806
v  -1.000076 0.961919 0.047575
v  -1.000076 0.961919 1.970806
v  0.224363 -0.979953 2.054311
v  0.236074 1.128933 2.129988
v  -0.224555 -0.979953 2.054311
v  -0.236266 1.128933 2.129988
v  0.962149 -0.999836 0.047575
v  0.962149 -0.999836 1.970806
v  -0.961039 -0.999836 0.047575
v  -0.961039 -0.999836 1.970806
v  -1.000076 -0.961396 0.047575
v  -0.961039 -0.999836 0.047575
v  -1.000076 -0.961396 1.970806
v  -0.961039 -0.999836 1.970806
v  0.999884 -0.961396 1.970806
v  0.999884 -0.961396 0.047575
v  0.999884 0.961919 1.970806
v  0.999884 0.961919 0.047575
v  0.962149 -0.961396 0.009737
v  0.962149 -0.999836 0.047575
v  -0.961039 -0.961396 0.009737
v  -0.961039 -0.999836 0.047575
v  0.962149 -0.961396 2.009949
v  0.962149 0.961919 2.009949
v  -0.961039 -0.961396 2.009949
v  -0.961039 0.961919 2.009949
v  -0.961039 -0.961396 0.009737
v  -0.961039 0.961919 0.009737
v  0.962149 -0.961396 0.009737
v  0.962149 0.961919 0.009737
v  1.102680 1.128933 0.769113
v  1.102680 1.128933 1.250573
v  1.045426 -0.979953 0.784770
v  1.045426 -0.979953 1.233611
v  1.033715 1.193883 1.250573
v  1.033715 1.193883 0.769113
v  0.236074 1.196534 1.250573
v  0.236074 1.196534 0.769113
v  -0.961039 -0.961396 2.009949
v  -0.961039 -0.999836 1.970806
v  0.962149 -0.961396 2.009949
v  0.962149 -0.999836 1.970806
v  0.993378 1.184604 0.016261
v  0.993378 1.095795 -0.072464
v  -0.993570 1.184604 0.016261
v  -0.993570 1.095795 -0.072464
v  -0.224555 -0.979953 -0.035930
v  -0.236266 1.128933 -0.111607
v  0.224363 -0.979953 -0.035930
v  0.236074 1.128933 -0.111607
v  -0.236266 1.196534 1.250573
v  -0.236266 1.193883 2.060835
v  0.236074 1.196534 1.250573
v  0.236074 1.193883 2.060835
v  0.993378 1.095795 -0.072464
v  1.038920 0.588125 -0.029406
v  -0.993570 1.095795 -0.072464
v  -1.039112 0.588125 -0.029406
v  -0.993570 1.184604 2.003425
v  -0.993570 1.095795 2.092150
v  0.993378 1.184604 2.003425
v  0.993378 1.095795 2.092150
v  -0.207639 1.156769 0.955695
v  0.051302 1.156769 1.217954
v  -0.242772 1.330410 0.975267
v  0.029181 1.330410 1.253183
v  -0.155591 1.394035 0.911333
v  0.095543 1.394035 1.165763
v  0.198339 1.404639 1.054857
v  -0.042385 1.404639 0.810866
v  0.060410 1.394035 0.698655
v  0.311544 1.394035 0.954390
v  0.418243 1.291970 0.900895
v  0.115061 1.291971 0.592969
v  0.374002 1.156769 0.900895
v  0.115061 1.156769 0.637331
v  -0.961039 0.961919 2.009949
v  -1.000076 0.961919 1.970806
v  -0.961039 -0.961396 2.009949
v  -1.000076 -0.961396 1.970806
v  -1.045618 -0.979953 0.784770
v  -1.045618 -0.979953 1.233611
v  -1.102871 1.128933 0.769113
v  -1.102871 1.128933 1.250573
v  0.999884 -0.961396 0.047575
v  0.962149 -0.961396 0.009737
v  0.999884 0.961919 0.047575
v  0.962149 0.961919 0.009737
v  1.038920 0.588125 2.047787
v  -1.039112 0.588125 2.047787
v  0.000555 0.588125 1.009190
v  -1.039112 0.588125 -0.029406
v  1.038920 0.588125 -0.029406

vt  0.351118 -0.412717 0.000000
vt  0.349540 -0.419162 0.000000
vt  0.581147 -0.412717 0.000000
vt  0.580540 -0.419892 0.000000
vt  0.287026 -0.071988 0.000000
vt  0.275373 -0.071988 0.000000
vt  0.287026 -0.129749 0.000000
vt  0.275373 -0.129749 0.000000
vt  0.907435 -0.586730 0.000000
vt  0.878666 -0.677445 0.000000
vt  0.938510 -0.586000 0.000000
vt  0.974198 -0.677931 0.000000
vt  0.860944 -0.740556 0.000000
vt  0.992770 -0.739340 0.000000
vt  0.861551 -0.762809 0.000000
vt  0.991435 -0.760256 0.000000
vt  0.859609 -0.785306 0.000000
vt  0.994591 -0.783482 0.000000
vt  0.863372 -0.812301 0.000000
vt  0.992406 -0.810721 0.000000
vt  0.867620 -0.841486 0.000000
vt  0.990707 -0.839662 0.000000
vt  0.888013 -0.890735 0.000000
vt  0.968250 -0.890491 0.000000
vt  0.951499 -0.933903 0.000000
vt  0.903187 -0.933417 0.000000
vt  0.942152 -0.993610 0.000000
vt  0.911077 -0.993245 0.000000
vt  0.678742 -0.071988 0.000000
vt  0.667210 -0.071988 0.000000
vt  0.678742 -0.129749 0.000000
vt  0.667210 -0.129749 0.000000
vt  0.740042 -0.607037 0.000000
vt  0.776337 -0.566544 0.000000
vt  0.696586 -0.562774 0.000000
vt  0.723412 -0.529698 0.000000
vt  0.775852 -0.504162 0.000000
vt  0.695858 -0.483246 0.000000
vt  0.769054 -0.422081 0.000000
vt  0.670366 -0.411866 0.000000
vt  0.756794 -0.373926 0.000000
vt  0.654950 -0.370156 0.000000
vt  0.743927 -0.336837 0.000000
vt  0.640141 -0.336959 0.000000
vt  0.739071 -0.272510 0.000000
vt  0.628245 -0.274091 0.000000
vt  0.679713 -0.217546 0.000000
vt  0.736886 -0.233111 0.000000
vt  0.731788 -0.149814 0.000000
vt  0.620598 -0.231773 0.000000
vt  0.613921 -0.156137 0.000000
vt  0.409991 -0.073569 0.000000
vt  0.398824 -0.073569 0.000000
vt  0.409991 -0.128290 0.000000
vt  0.398824 -0.128290 0.000000
vt  0.007715 -0.195901 0.000000
vt  0.099847 -0.195901 0.000000
vt  0.007715 -0.141180 0.000000
vt  0.099847 -0.141180 0.000000
vt  0.475661 -0.999690 0.000000
vt  0.482338 -0.999690 0.000000
vt  0.475661 -0.765241 0.000000
vt  0.482338 -0.765241 0.000000
vt  0.099847 -0.195901 0.000000
vt  0.154593 -0.195901 0.000000
vt  0.099847 -0.141180 0.000000
vt  0.154593 -0.141180 0.000000
vt  0.814331 -0.606551 0.000000
vt  0.857059 -0.561558 0.000000
vt  0.777430 -0.566544 0.000000
vt  0.829747 -0.528969 0.000000
vt  0.776944 -0.504162 0.000000
vt  0.856574 -0.482030 0.000000
vt  0.782406 -0.421959 0.000000
vt  0.880973 -0.410285 0.000000
vt  0.793938 -0.373683 0.000000
vt  0.895782 -0.368332 0.000000
vt  0.806320 -0.336351 0.000000
vt  0.909984 -0.335013 0.000000
vt  0.810204 -0.271902 0.000000
vt  0.921030 -0.271902 0.000000
vt  0.868713 -0.216087 0.000000
vt  0.927949 -0.229463 0.000000
vt  0.933655 -0.153705 0.000000
vt  0.811782 -0.232503 0.000000
vt  0.815666 -0.149206 0.000000
vt  0.010142 -0.299627 0.000000
vt  0.064888 -0.299627 0.000000
vt  0.010142 -0.207453 0.000000
vt  0.064888 -0.207453 0.000000
vt  0.799886 -0.607524 0.000000
vt  0.770389 -0.607524 0.000000
vt  0.829262 -0.693253 0.000000
vt  0.738464 -0.695685 0.000000
vt  0.847591 -0.752838 0.000000
vt  0.722198 -0.754540 0.000000
vt  0.847470 -0.773997 0.000000
vt  0.724019 -0.774483 0.000000
vt  0.849898 -0.795399 0.000000
vt  0.721470 -0.796615 0.000000
vt  0.846863 -0.821057 0.000000
vt  0.724141 -0.822516 0.000000
vt  0.843464 -0.849025 0.000000
vt  0.726326 -0.849998 0.000000
vt  0.825135 -0.896207 0.000000
vt  0.748904 -0.897788 0.000000
vt  0.765776 -0.938646 0.000000
vt  0.811661 -0.937187 0.000000
vt  0.775973 -0.995312 0.000000
vt  0.805470 -0.994218 0.000000
vt  0.084553 -0.703103 0.000000
vt  0.079090 -0.764633 0.000000
vt  0.324656 -0.703103 0.000000
vt  0.330118 -0.764633 0.000000
vt  0.324656 -0.688024 0.000000
vt  0.324656 -0.447982 0.000000
vt  0.084553 -0.688024 0.000000
vt  0.084553 -0.447982 0.000000
vt  0.339708 -0.450171 0.000000
vt  0.341165 -0.685106 0.000000
vt  0.400402 -0.450171 0.000000
vt  0.408899 -0.688024 0.000000
vt  0.129102 -0.206967 0.000000
vt  0.074477 -0.206967 0.000000
vt  0.129102 -0.299141 0.000000
vt  0.074477 -0.299141 0.000000
vt  0.549343 -0.003648 0.000000
vt  0.537812 -0.003648 0.000000
vt  0.549343 -0.062260 0.000000
vt  0.537812 -0.062260 0.000000
vt  0.006015 -0.060315 0.000000
vt  0.017183 -0.060315 0.000000
vt  0.006015 -0.005594 0.000000
vt  0.017183 -0.005594 0.000000
vt  0.383043 -0.062260 0.000000
vt  0.383043 -0.003648 0.000000
vt  0.285812 -0.062260 0.000000
vt  0.285812 -0.003648 0.000000
vt  0.440702 -0.062260 0.000000
vt  0.440702 -0.003648 0.000000
vt  0.383043 -0.062260 0.000000
vt  0.383043 -0.003648 0.000000
vt  0.806441 -0.060315 0.000000
vt  0.817609 -0.060315 0.000000
vt  0.806441 -0.005594 0.000000
vt  0.817609 -0.005594 0.000000
vt  0.324656 -0.688024 0.000000
vt  0.341165 -0.685106 0.000000
vt  0.324656 -0.447982 0.000000
vt  0.339708 -0.450171 0.000000
vt  0.274280 -0.062260 0.000000
vt  0.285812 -0.062260 0.000000
vt  0.274280 -0.003648 0.000000
vt  0.285812 -0.003648 0.000000
vt  0.069501 -0.685714 0.000000
vt  0.068044 -0.450779 0.000000
vt  0.008686 -0.701279 0.000000
vt  0.000310 -0.437281 0.000000
vt  0.069501 -0.685714 0.000000
vt  0.084553 -0.688024 0.000000
vt  0.068044 -0.450779 0.000000
vt  0.084553 -0.447982 0.000000
vt  0.678742 -0.129749 0.000000
vt  0.777551 -0.129749 0.000000
vt  0.678742 -0.071988 0.000000
vt  0.777551 -0.071988 0.000000
vt  0.683597 -0.517781 0.000000
vt  0.676436 -0.517052 0.000000
vt  0.682869 -0.748339 0.000000
vt  0.676436 -0.746636 0.000000
vt  0.154593 -0.195901 0.000000
vt  0.246726 -0.195901 0.000000
vt  0.154593 -0.141180 0.000000
vt  0.246726 -0.141180 0.000000
vt  0.018275 -0.073569 0.000000
vt  0.007108 -0.073569 0.000000
vt  0.018275 -0.128290 0.000000
vt  0.007108 -0.128290 0.000000
vt  0.234708 -0.999690 0.000000
vt  0.234708 -0.765241 0.000000
vt  0.000310 -0.999690 0.000000
vt  0.000310 -0.765241 0.000000
vt  0.018275 -0.128290 0.000000
vt  0.275373 -0.129749 0.000000
vt  0.018275 -0.073569 0.000000
vt  0.275373 -0.071988 0.000000
vt  0.475661 -0.999690 0.000000
vt  0.475661 -0.765241 0.000000
vt  0.241385 -0.999690 0.000000
vt  0.241385 -0.765241 0.000000
vt  0.234708 -0.999690 0.000000
vt  0.241385 -0.999690 0.000000
vt  0.234708 -0.765241 0.000000
vt  0.241385 -0.765241 0.000000
vt  0.482338 -0.765241 0.000000
vt  0.482338 -0.999690 0.000000
vt  0.716736 -0.765241 0.000000
vt  0.716736 -0.999690 0.000000
vt  0.351118 -0.158569 0.000000
vt  0.344685 -0.157596 0.000000
vt  0.351118 -0.412717 0.000000
vt  0.344442 -0.413933 0.000000
vt  0.676436 -0.746636 0.000000
vt  0.676436 -0.517052 0.000000
vt  0.422373 -0.748217 0.000000
vt  0.422373 -0.517781 0.000000
vt  0.351118 -0.412717 0.000000
vt  0.581147 -0.412717 0.000000
vt  0.351118 -0.158569 0.000000
vt  0.581147 -0.158569 0.000000
vt  0.549343 -0.003648 0.000000
vt  0.549343 -0.062260 0.000000
vt  0.806441 -0.005594 0.000000
vt  0.806441 -0.060315 0.000000
vt  0.537812 -0.062260 0.000000
vt  0.537812 -0.003648 0.000000
vt  0.440702 -0.062260 0.000000
vt  0.440702 -0.003648 0.000000
vt  0.422373 -0.748217 0.000000
vt  0.422373 -0.754540 0.000000
vt  0.676436 -0.746636 0.000000
vt  0.680684 -0.753324 0.000000
vt  0.324656 -0.447982 0.000000
vt  0.324656 -0.432781 0.000000
vt  0.084553 -0.447982 0.000000
vt  0.084553 -0.432781 0.000000
vt  0.409991 -0.128290 0.000000
vt  0.667210 -0.129749 0.000000
vt  0.409991 -0.073569 0.000000
vt  0.667210 -0.071988 0.000000
vt  0.385835 -0.071988 0.000000
vt  0.287026 -0.071988 0.000000
vt  0.385835 -0.129749 0.000000
vt  0.287026 -0.129749 0.000000
vt  0.324656 -0.432781 0.000000
vt  0.330118 -0.371251 0.000000
vt  0.084553 -0.432781 0.000000
vt  0.079090 -0.371251 0.000000
vt  0.084553 -0.688024 0.000000
vt  0.084553 -0.703103 0.000000
vt  0.324656 -0.688024 0.000000
vt  0.324656 -0.703103 0.000000
vt  0.140269 -0.215600 0.000000
vt  0.140269 -0.290994 0.000000
vt  0.176685 -0.213533 0.000000
vt  0.176685 -0.292939 0.000000
vt  0.202177 -0.216695 0.000000
vt  0.202177 -0.289899 0.000000
vt  0.233252 -0.288197 0.000000
vt  0.233252 -0.218276 0.000000
vt  0.264205 -0.216695 0.000000
vt  0.264205 -0.289899 0.000000
vt  0.295402 -0.297438 0.000000
vt  0.295402 -0.209155 0.000000
vt  0.323564 -0.290994 0.000000
vt  0.323564 -0.215600 0.000000
vt  0.422373 -0.517781 0.000000
vt  0.415696 -0.518146 0.000000
vt  0.422373 -0.748217 0.000000
vt  0.415939 -0.749676 0.000000
vt  0.017183 -0.005594 0.000000
vt  0.017183 -0.060315 0.000000
vt  0.274280 -0.003648 0.000000
vt  0.274280 -0.062260 0.000000
vt  0.349419 -0.152246 0.000000
vt  0.351118 -0.158569 0.000000
vt  0.580661 -0.151881 0.000000
vt  0.581147 -0.158569 0.000000
vt  0.050928 -0.718425 0.000000
vt  0.027137 -0.718425 0.000000
vt  0.039032 -0.730342 0.000000
vt  0.027137 -0.742259 0.000000
vt  0.050928 -0.742259 0.000000

vn  -0.707105 0.002185 -0.707105
vn  -0.707105 0.002185 -0.707105
vn  -0.707105 0.002185 -0.707105
vn  -0.707105 0.002185 -0.707105
vn  0.001885 0.730641 0.682759
vn  0.001885 0.730641 0.682759
vn  0.001885 0.730641 0.682759
vn  0.001885 0.730641 0.682759
vn  -0.069861 -0.995383 0.065813
vn  -0.063729 -0.997853 -0.015104
vn  -0.069861 -0.995383 0.065813
vn  -0.068220 -0.997557 -0.015016
vn  0.049063 -0.994955 0.087512
vn  0.049087 -0.995383 0.082476
vn  0.571141 -0.565295 0.595180
vn  0.564070 -0.579625 0.588098
vn  0.674945 0.315658 0.666940
vn  0.673299 0.319801 0.666630
vn  0.485432 0.748288 0.452129
vn  0.476930 0.754056 0.451593
vn  0.209288 0.962351 0.173431
vn  0.209288 0.962351 0.173431
vn  -0.126560 0.979869 -0.154399
vn  -0.124295 0.980732 -0.150717
vn  -0.404583 0.816148 -0.412572
vn  -0.404583 0.816148 -0.412572
vn  -0.069861 -0.995383 0.065813
vn  -0.069861 -0.995383 0.065813
vn  0.001885 0.730641 -0.682759
vn  0.001885 0.730641 -0.682759
vn  0.001885 0.730641 -0.682759
vn  0.001885 0.730641 -0.682759
vn  0.006694 0.999962 -0.005617
vn  0.069853 0.997557 0.000000
vn  0.006694 0.999962 -0.005617
vn  0.075479 0.996909 -0.021814
vn  0.025493 0.995793 -0.088011
vn  -0.029413 0.994040 -0.104975
vn  -0.079816 0.991421 -0.103507
vn  -0.088701 0.991983 -0.090013
vn  -0.211854 0.975274 -0.062917
vn  -0.279557 0.958706 -0.052258
vn  -0.666595 0.745382 -0.007533
vn  -0.758307 0.651854 0.007539
vn  -0.935113 0.352719 0.033955
vn  -0.934761 0.340423 0.101661
vn  -0.951258 0.299027 0.075434
vn  -0.967325 0.252835 -0.018878
vn  -0.967148 0.252835 -0.026427
vn  -0.939465 0.273910 0.205860
vn  -0.926640 0.328069 0.183599
vn  0.001888 -0.706334 -0.707876
vn  0.001888 -0.706334 -0.707876
vn  0.001888 -0.706334 -0.707876
vn  0.001888 -0.706334 -0.707876
vn  -0.002185 -0.999991 -0.003784
vn  -0.002185 -0.999991 -0.003784
vn  -0.002185 -0.999991 -0.003784
vn  -0.002185 -0.999991 -0.003784
vn  0.707879 -0.706334 -0.000000
vn  0.707879 -0.706334 -0.000000
vn  0.707879 -0.706334 -0.000000
vn  0.707879 -0.706334 -0.000000
vn  -0.000000 -1.000000 -0.000000
vn  -0.000000 -1.000000 -0.000000
vn  -0.000000 -1.000000 -0.000000
vn  -0.000000 -1.000000 -0.000000
vn  0.006694 0.999962 -0.005617
vn  0.006694 0.999962 -0.005617
vn  -0.001860 0.997557 -0.069829
vn  0.027064 0.996909 -0.073759
vn  0.088966 0.995793 -0.021928
vn  0.104975 0.994040 0.029413
vn  0.101186 0.991421 0.082739
vn  0.091306 0.991983 0.087370
vn  0.061116 0.975274 0.212381
vn  0.048564 0.958706 0.280222
vn  0.000000 0.745382 0.666637
vn  -0.022614 0.651854 0.758008
vn  -0.047151 0.352719 0.934541
vn  -0.114778 0.340423 0.933241
vn  -0.094237 0.299027 0.949580
vn  -0.215061 0.273910 0.937402
vn  -0.203898 0.328069 0.922386
vn  0.009439 0.252835 0.967463
vn  0.009439 0.252835 0.967463
vn  -0.002185 -0.999991 -0.003784
vn  -0.002185 -0.999991 -0.003784
vn  -0.002185 -0.999991 -0.003784
vn  -0.002185 -0.999991 -0.003784
vn  -0.069861 -0.995383 0.065813
vn  -0.069861 -0.995383 0.065813
vn  0.011373 -0.997853 0.064499
vn  0.018688 -0.997557 0.067307
vn  -0.084587 -0.994955 -0.053950
vn  -0.083436 -0.995383 -0.047437
vn  -0.581947 -0.565295 -0.584618
vn  -0.574873 -0.579625 -0.577543
vn  -0.658841 0.315658 -0.682853
vn  -0.654460 0.319801 -0.685135
vn  -0.445189 0.748288 -0.491805
vn  -0.441916 0.754056 -0.485911
vn  -0.169049 0.962351 -0.212843
vn  -0.169049 0.962351 -0.212843
vn  0.150767 0.979869 0.130866
vn  0.150717 0.980732 0.124295
vn  0.409927 0.816147 0.407264
vn  0.409927 0.816147 0.407264
vn  -0.069861 -0.995383 0.065813
vn  -0.069861 -0.995383 0.065813
vn  0.001888 -0.085100 0.996371
vn  0.001888 -0.085100 0.996371
vn  0.001888 -0.085100 0.996371
vn  0.001888 -0.085100 0.996371
vn  0.000000 1.000000 0.000000
vn  0.000000 1.000000 0.000000
vn  0.000000 1.000000 0.000000
vn  0.000000 1.000000 0.000000
vn  0.996372 -0.085100 -0.000000
vn  0.996372 -0.085100 -0.000000
vn  0.996372 -0.085100 -0.000000
vn  0.996372 -0.085100 -0.000000
vn  0.004369 -0.999991 -0.000000
vn  0.004369 -0.999991 -0.000000
vn  0.004369 -0.999991 -0.000000
vn  0.004369 -0.999991 -0.000000
vn  0.689120 0.724647 0.000000
vn  0.689120 0.724647 0.000000
vn  0.689120 0.724647 0.000000
vn  0.689120 0.724647 0.000000
vn  -0.707869 -0.706334 -0.003776
vn  -0.707869 -0.706334 -0.003776
vn  -0.707869 -0.706334 -0.003776
vn  -0.707869 -0.706334 -0.003776
vn  -0.003535 0.999991 0.002568
vn  -0.003535 0.999991 0.002568
vn  -0.003535 0.999991 0.002568
vn  -0.003535 0.999991 0.002568
vn  0.000000 1.000000 0.000000
vn  0.000000 1.000000 0.000000
vn  0.000000 1.000000 0.000000
vn  0.000000 1.000000 0.000000
vn  0.707879 -0.706334 -0.000000
vn  0.707879 -0.706334 -0.000000
vn  0.707879 -0.706334 -0.000000
vn  0.707879 -0.706334 -0.000000
vn  0.707879 0.706334 0.000000
vn  0.707879 0.706334 0.000000
vn  0.707879 0.706334 0.000000
vn  0.707879 0.706334 0.000000
vn  -0.689120 0.724647 0.000000
vn  -0.689120 0.724647 0.000000
vn  -0.689120 0.724647 0.000000
vn  -0.689120 0.724647 0.000000
vn  -0.996365 -0.085100 -0.003776
vn  -0.996365 -0.085100 -0.003776
vn  -0.996365 -0.085100 -0.003776
vn  -0.996365 -0.085100 -0.003776
vn  -0.707879 0.706334 0.000000
vn  -0.707879 0.706334 0.000000
vn  -0.707879 0.706334 0.000000
vn  -0.707879 0.706334 0.000000
vn  0.001350 0.999991 -0.004155
vn  0.001350 0.999991 -0.004155
vn  0.001350 0.999991 -0.004155
vn  0.001350 0.999991 -0.004155
vn  0.707105 0.002185 0.707105
vn  0.707105 0.002185 0.707105
vn  0.707105 0.002185 0.707105
vn  0.707105 0.002185 0.707105
vn  -0.002185 -0.999991 0.003784
vn  -0.002185 -0.999991 0.003784
vn  -0.002185 -0.999991 0.003784
vn  -0.002185 -0.999991 0.003784
vn  0.001888 -0.706334 0.707876
vn  0.001888 -0.706334 0.707876
vn  0.001888 -0.706334 0.707876
vn  0.001888 -0.706334 0.707876
vn  -0.999998 0.002185 0.000000
vn  -0.999998 0.002185 0.000000
vn  -0.999998 0.002185 0.000000
vn  -0.999998 0.002185 0.000000
vn  0.000000 -0.037131 0.999310
vn  0.000000 -0.037131 0.999310
vn  0.000000 -0.037131 0.999310
vn  0.000000 -0.037131 0.999310
vn  -0.000000 -1.000000 -0.000000
vn  -0.000000 -1.000000 -0.000000
vn  -0.000000 -1.000000 -0.000000
vn  -0.000000 -1.000000 -0.000000
vn  -0.707869 -0.706334 -0.003776
vn  -0.707869 -0.706334 -0.003776
vn  -0.707869 -0.706334 -0.003776
vn  -0.707869 -0.706334 -0.003776
vn  0.999998 0.002185 0.000000
vn  0.999998 0.002185 0.000000
vn  0.999998 0.002185 0.000000
vn  0.999998 0.002185 0.000000
vn  0.001888 -0.706334 -0.707876
vn  0.001888 -0.706334 -0.707876
vn  0.001888 -0.706334 -0.707876
vn  0.001888 -0.706334 -0.707876
vn  0.000000 0.002185 0.999998
vn  0.000000 0.002185 0.999998
vn  0.000000 0.002185 0.999998
vn  0.000000 0.002185 0.999998
vn  -0.000000 0.002185 -0.999998
vn  -0.000000 0.002185 -0.999998
vn  -0.000000 0.002185 -0.999998
vn  -0.000000 0.002185 -0.999998
vn  0.999597 -0.028397 -0.000000
vn  0.999597 -0.028397 -0.000000
vn  0.999597 -0.028397 -0.000000
vn  0.999597 -0.028397 -0.000000
vn  0.004369 0.999991 0.000000
vn  0.004369 0.999991 0.000000
vn  0.004369 0.999991 0.000000
vn  0.004369 0.999991 0.000000
vn  0.001888 -0.706334 0.707876
vn  0.001888 -0.706334 0.707876
vn  0.001888 -0.706334 0.707876
vn  0.001888 -0.706334 0.707876
vn  0.003769 0.706334 -0.707869
vn  0.003769 0.706334 -0.707869
vn  0.003769 0.706334 -0.707869
vn  0.003769 0.706334 -0.707869
vn  -0.000000 -0.037131 -0.999310
vn  -0.000000 -0.037131 -0.999310
vn  -0.000000 -0.037131 -0.999310
vn  -0.000000 -0.037131 -0.999310
vn  0.001350 0.999991 0.004156
vn  0.001350 0.999991 0.004156
vn  0.001350 0.999991 0.004156
vn  0.001350 0.999991 0.004156
vn  0.001888 -0.085100 -0.996371
vn  0.001888 -0.085100 -0.996371
vn  0.001888 -0.085100 -0.996371
vn  0.001888 -0.085100 -0.996371
vn  0.003769 0.706334 0.707869
vn  0.003769 0.706334 0.707869
vn  0.003769 0.706334 0.707869
vn  0.003769 0.706334 0.707869
vn  -0.693937 -0.223129 0.684591
vn  -0.693937 -0.223129 0.684591
vn  -0.660358 0.381169 0.647022
vn  -0.660358 0.381169 0.647022
vn  -0.218137 0.950921 0.219464
vn  -0.218137 0.950921 0.219464
vn  0.000000 1.000000 0.000000
vn  0.000000 1.000000 0.000000
vn  0.300387 0.907892 -0.292405
vn  0.300387 0.907892 -0.292405
vn  0.678332 0.294855 -0.672998
vn  0.678332 0.294855 -0.672998
vn  0.695228 -0.227386 -0.681875
vn  0.695228 -0.227386 -0.681875
vn  -0.707105 0.002185 0.707105
vn  -0.707105 0.002185 0.707105
vn  -0.707105 0.002185 0.707105
vn  -0.707105 0.002185 0.707105
vn  -0.999597 -0.028397 -0.000000
vn  -0.999597 -0.028397 -0.000000
vn  -0.999597 -0.028397 -0.000000
vn  -0.999597 -0.028397 -0.000000
vn  0.707105 0.002185 -0.707105
vn  0.707105 0.002185 -0.707105
vn  0.707105 0.002185 -0.707105
vn  0.707105 0.002185 -0.707105
vn  -0.000000 -1.000000 -0.000000
vn  0.000000 -1.000000 -0.000000
vn  -0.000000 -1.000000 -0.000000
vn  -0.000000 -1.000000 -0.000000
vn  -0.000000 -1.000000 -0.000000

g Cube_0
usemtl Cube_0
f  1/1/1 2/2/2 3/3/3
f  4/4/4 3/3/3 2/2/2
f  5/5/5 6/6/6 7/7/7
f  8/8/8 7/7/7 6/6/6
f  9/9/9 10/10/10 11/11/11
f  12/12/12 11/11/11 10/10/10
f  10/10/10 13/13/13 12/12/12
f  14/14/14 12/12/12 13/13/13
f  13/13/13 15/15/15 14/14/14
f  16/16/16 14/14/14 15/15/15
f  15/15/15 17/17/17 16/16/16
f  17/17/17 13/13/13 15/15/15
f  18/18/18 16/16/16 17/17/17
f  17/17/17 19/19/19 18/18/18
f  20/20/20 18/18/18 19/19/19
f  18/18/18 19/19/19 20/20/20
f  19/19/19 21/21/21 20/20/20
f  22/22/22 20/20/20 21/21/21
f  21/21/21 22/22/22 23/23/23
f  21/21/21 23/23/23 22/22/22
f  24/24/24 22/22/22 23/23/23
f  24/24/24 23/23/23 25/25/25
f  26/26/26 25/25/25 23/23/23
f  24/24/24 25/25/25 26/26/26
f  25/25/25 26/26/26 27/27/27
f  28/28/28 27/27/27 26/26/26
f  27/27/27 28/28/28 29/29/29
f  29/29/29 30/30/30 31/31/31
f  32/32/32 31/31/31 30/30/30
f  30/30/30 31/31/31 32/32/32
f  33/33/33 34/34/34 35/35/35
f  33/33/33 34/34/34 35/35/35
f  36/36/36 35/35/35 34/34/34
f  34/34/34 37/37/37 36/36/36
f  38/38/38 36/36/36 37/37/37
f  36/36/36 37/37/37 38/38/38
f  37/37/37 39/39/39 38/38/38
f  40/40/40 38/38/38 39/39/39
f  39/39/39 41/41/41 40/40/40
f  39/39/39 40/40/40 41/41/41
f  42/42/42 40/40/40 41/41/41
f  41/41/41 43/43/43 42/42/42
f  42/42/42 43/43/43 44/44/44
f  44/44/44 42/42/42 43/43/43
f  43/43/43 45/45/45 44/44/44
f  46/46/46 44/44/44 45/45/45
f  46/46/46 45/45/45 47/47/47
f  45/45/45 46/46/46 47/47/47
f  48/48/48 47/47/47 45/45/45
f  47/47/47 48/48/48 49/49/49
f  46/46/46 47/47/47 50/50/50
f  48/48/48 49/49/49 50/50/50
f  51/51/51 50/50/50 47/47/47
f  51/51/51 52/52/52 53/53/53
f  52/52/52 53/53/53 54/54/54
f  55/55/55 54/54/54 53/53/53
f  54/54/54 55/55/55 56/56/56
f  56/56/56 57/57/57 58/58/58
f  59/59/59 58/58/58 57/57/57
f  60/60/60 61/61/61 62/62/62
f  63/63/63 62/62/62 61/61/61
f  64/64/64 65/65/65 66/66/66
f  67/67/67 66/66/66 65/65/65
f  68/68/68 69/69/69 70/70/70
f  71/71/71 70/70/70 69/69/69
f  70/70/70 71/71/71 72/72/72
f  73/73/73 72/72/72 71/71/71
f  72/72/72 73/73/73 74/74/74
f  75/75/75 74/74/74 73/73/73
f  74/74/74 75/75/75 76/76/76
f  77/77/77 76/76/76 75/75/75
f  76/76/76 77/77/77 78/78/78
f  79/79/79 78/78/78 77/77/77
f  78/78/78 79/79/79 80/80/80
f  81/81/81 80/80/80 79/79/79
f  80/80/80 81/81/81 82/82/82
f  83/83/83 82/82/82 81/81/81
f  82/82/82 83/83/83 84/84/84
f  80/80/80 82/82/82 85/85/85
f  86/86/86 85/85/85 82/82/82
f  87/87/87 88/88/88 89/89/89
f  90/90/90 89/89/89 88/88/88
f  91/91/91 92/92/92 93/93/93
f  94/94/94 93/93/93 92/92/92
f  93/93/93 94/94/94 95/95/95
f  96/96/96 95/95/95 94/94/94
f  95/95/95 96/96/96 97/97/97
f  98/98/98 97/97/97 96/96/96
f  97/97/97 98/98/98 99/99/99
f  100/100/100 99/99/99 98/98/98
f  99/99/99 100/100/100 101/101/101
f  102/102/102 101/101/101 100/100/100
f  101/101/101 102/102/102 103/103/103
f  104/104/104 103/103/103 102/102/102
f  103/103/103 104/104/104 105/105/105
f  106/106/106 105/105/105 104/104/104
f  105/105/105 106/106/106 107/107/107
f  105/105/105 107/107/107 108/108/108
f  109/109/109 108/108/108 107/107/107
f  108/108/108 109/109/109 110/110/110
f  111/111/111 112/112/112 113/113/113
f  114/114/114 113/113/113 112/112/112
f  115/115/115 116/116/116 117/117/117
f  118/118/118 117/117/117 116/116/116
f  119/119/119 120/120/120 121/121/121
f  122/122/122 121/121/121 120/120/120
f  123/123/123 124/124/124 125/125/125
f  126/126/126 125/125/125 124/124/124
f  127/127/127 128/128/128 129/129/129
f  130/130/130 129/129/129 128/128/128
f  131/131/131 132/132/132 133/133/133
f  134/134/134 133/133/133 132/132/132
f  135/135/135 136/136/136 137/137/137
f  138/138/138 137/137/137 136/136/136
f  139/139/139 140/140/140 141/141/141
f  142/142/142 141/141/141 140/140/140
f  143/143/143 144/144/144 145/145/145
f  146/146/146 145/145/145 144/144/144
f  147/147/147 148/148/148 149/149/149
f  150/150/150 149/149/149 148/148/148
f  151/151/151 152/152/152 153/153/153
f  154/154/154 153/153/153 152/152/152
f  155/155/155 156/156/156 157/157/157
f  158/158/158 157/157/157 156/156/156
f  159/159/159 160/160/160 161/161/161
f  162/162/162 161/161/161 160/160/160
f  163/163/163 164/164/164 165/165/165
f  166/166/166 165/165/165 164/164/164
f  167/167/167 168/168/168 169/169/169
f  170/170/170 169/169/169 168/168/168
f  171/171/171 172/172/172 173/173/173
f  174/174/174 173/173/173 172/172/172
f  175/175/175 176/176/176 177/177/177
f  178/178/178 177/177/177 176/176/176
f  179/179/179 180/180/180 181/181/181
f  182/182/182 181/181/181 180/180/180
f  183/183/183 184/184/184 185/185/185
f  186/186/186 185/185/185 184/184/184
f  187/187/187 188/188/188 189/189/189
f  190/190/190 189/189/189 188/188/188
f  191/191/191 192/192/192 193/193/193
f  194/194/194 193/193/193 192/192/192
f  195/195/195 196/196/196 197/197/197
f  198/198/198 197/197/197 196/196/196
f  199/199/199 200/200/200 201/201/201
f  202/202/202 201/201/201 200/200/200
f  203/203/203 204/204/204 205/205/205
f  206/206/206 205/205/205 204/204/204
f  207/207/207 208/208/208 209/209/209
f  210/210/210 209/209/209 208/208/208
f  211/211/211 212/212/212 213/213/213
f  214/214/214 213/213/213 212/212/212
f  215/215/215 216/216/216 217/217/217
f  218/218/218 217/217/217 216/216/216
f  219/219/219 220/220/220 221/221/221
f  222/222/222 221/221/221 220/220/220
f  223/223/223 224/224/224 225/225/225
f  226/226/226 225/225/225 224/224/224
f  227/227/227 228/228/228 229/229/229
f  230/230/230 229/229/229 228/228/228
f  231/231/231 232/232/232 233/233/233
f  234/234/234 233/233/233 232/232/232
f  235/235/235 236/236/236 237/237/237
f  238/238/238 237/237/237 236/236/236
f  239/239/239 240/240/240 241/241/241
f  242/242/242 241/241/241 240/240/240
f  243/243/243 244/244/244 245/245/245
f  246/246/246 245/245/245 244/244/244
f  245/245/245 246/246/246 247/247/247
f  248/248/248 247/247/247 246/246/246
f  247/247/247 248/248/248 249/249/249
f  247/247/247 249/249/249 250/250/250
f  251/251/251 250/250/250 249/249/249
f  249/249/249 252/252/252 251/251/251
f  253/253/253 251/251/251 252/252/252
f  251/251/251 253/253/253 254/254/254
f  255/255/255 254/254/254 253/253/253
f  254/254/254 255/255/255 256/256/256
f  257/257/257 258/258/258 259/259/259
f  260/260/260 259/259/259 258/258/258
f  261/261/261 262/262/262 263/263/263
f  264/264/264 263/263/263 262/262/262
f  265/265/265 266/266/266 267/267/267
f  268/268/268 267/267/267 266/266/266
f  269/269/269 270/270/270 271/271/271
f  272/272/272 271/271/271 270/270/270
f  271/271/271 272/272/272 273/273/273

g
